G04 ================== begin FILE IDENTIFICATION RECORD ==================*
G04 Layout Name:  D:/263312/Cockpit.PCB/allegro/cockpit_transmissionshifterunit.brd*
G04 Film Name:    Soldermask_BOTTOM*
G04 File Format:  Gerber RS274X*
G04 File Origin:  Cadence Allegro 22.1-S008*
G04 Origin Date:  Tue Mar 31 19:59:57 2026*
G04 *
G04 Layer:  VIA CLASS/SOLDERMASK_BOTTOM*
G04 Layer:  PIN/SOLDERMASK_BOTTOM*
G04 Layer:  PACKAGE GEOMETRY/SOLDERMASK_BOTTOM*
G04 Layer:  BOARD GEOMETRY/SOLDERMASK_BOTTOM*
G04 *
G04 Offset:    (0.0000 0.0000)*
G04 Mirror:    No*
G04 Mode:      Positive*
G04 Rotation:  0*
G04 FullContactRelief:  No*
G04 UndefLineWidth:     0.2000*
G04 ================== end FILE IDENTIFICATION RECORD ====================*
%FSLAX35Y35*MOMM*%
%IR0*IPPOS*OFA0.00000B0.00000*MIA0B0*SFA1.00000B1.00000*%
%ADD10C,1.905*%
%ADD11C,1.1176*%
%LPD*%
G75*
G54D10*
X350000Y346000D03*
Y600000D03*
X346000Y900000D03*
X750000Y346000D03*
X1150000D03*
X750000Y600000D03*
X1150000D03*
X600000Y900000D03*
X1550000Y346000D03*
X1950000D03*
X1550000Y600000D03*
X1950000D03*
X2350000Y346000D03*
X2750000D03*
X2350000Y600000D03*
X2750000D03*
X3263000Y2050000D03*
X3517000D03*
X3771000D03*
X4025000D03*
X4396000D03*
X4650000D03*
X5400000Y442000D03*
X5100000D03*
X5400000Y696000D03*
Y950000D03*
X5100000Y696000D03*
Y950000D03*
X5350000Y1642000D03*
Y1896000D03*
Y2150000D03*
G54D11*
X1625000Y1575000D03*
X2000000Y1600000D03*
X2725000Y800000D03*
X2750000Y1325000D03*
X3150000Y1375000D03*
X3125000Y1200000D03*
X4025000Y1025000D03*
X3850000Y1900000D03*
X4929000Y1896000D03*
X4950000Y2150000D03*
M02*
